<?xml version="1.0" standalone="no"?>
<!DOCTYPE svg PUBLIC "-//W3C//DTD SVG 20010904//EN"
 "http://www.w3.org/TR/2001/REC-SVG-20010904/DTD/svg10.dtd">
<svg version="1.0" xmlns="http://www.w3.org/2000/svg"
 width="410.000000pt" height="288.000000pt" viewBox="0 0 410.000000 288.000000"
 preserveAspectRatio="xMidYMid meet">

<g transform="translate(0.000000,288.000000) scale(0.100000,-0.100000)"
fill="#000000" stroke="none">
<path d="M2474 2566 c-8 -8 -7 -15 0 -22 8 -8 15 -7 22 0 8 8 7 15 0 22 -8 8
-15 7 -22 0z"/>
<path d="M2534 2567 c-17 -19 11 -43 29 -25 11 10 12 15 1 25 -15 16 -16 16
-30 0z"/>
<path d="M2604 2566 c-8 -8 -7 -15 3 -24 8 -8 13 -9 13 -2 0 12 57 14 62 1 2
-5 8 -4 14 3 8 8 7 15 -3 24 -8 8 -13 9 -13 2 0 -12 -57 -14 -62 -1 -1 5 -8 4
-14 -3z"/>
<path d="M2734 2567 c-17 -19 11 -43 29 -25 11 10 12 15 1 25 -15 16 -16 16
-30 0z"/>
<path d="M2804 2566 c-8 -8 -7 -15 0 -22 8 -8 15 -7 22 0 8 8 7 15 0 22 -8 8
-15 7 -22 0z"/>
<path d="M2004 2447 c-17 -19 11 -43 29 -25 11 10 12 15 1 25 -15 16 -16 16
-30 0z"/>
<path d="M2074 2446 c-8 -8 -7 -15 3 -24 8 -8 13 -9 13 -2 0 12 57 14 62 1 2
-5 8 -4 14 3 8 8 7 15 -3 24 -8 8 -13 9 -13 2 0 -12 -57 -14 -62 -1 -1 5 -8 4
-14 -3z"/>
<path d="M2204 2447 c-17 -19 11 -43 29 -25 11 10 12 15 1 25 -15 16 -16 16
-30 0z"/>
<path d="M2274 2446 c-8 -8 -7 -15 0 -22 8 -8 15 -7 22 0 8 8 7 15 0 22 -8 8
-15 7 -22 0z"/>
<path d="M2350 2450 c0 -5 -8 -10 -17 -11 -14 0 -15 -2 -3 -6 8 -3 17 -9 20
-13 3 -4 10 -2 16 4 8 9 7 15 -3 24 -8 8 -13 9 -13 2z"/>
<path d="M2404 2446 c-8 -9 -7 -15 3 -24 8 -8 13 -9 13 -2 0 5 8 10 18 11 13
0 14 2 2 6 -8 3 -17 9 -20 13 -3 4 -10 2 -16 -4z"/>
<path d="M2474 2446 c-8 -8 -7 -15 0 -22 8 -8 15 -7 22 0 8 8 7 15 0 22 -8 8
-15 7 -22 0z"/>
<path d="M2534 2447 c-17 -19 11 -43 29 -25 11 10 12 15 1 25 -15 16 -16 16
-30 0z"/>
<path d="M2604 2446 c-8 -8 -7 -15 3 -24 8 -8 13 -9 13 -2 0 12 57 14 62 1 2
-5 8 -4 14 3 8 8 7 15 -3 24 -8 8 -13 9 -13 2 0 -12 -57 -14 -62 -1 -1 5 -8 4
-14 -3z"/>
<path d="M2734 2447 c-17 -19 11 -43 29 -25 11 10 12 15 1 25 -15 16 -16 16
-30 0z"/>
<path d="M2804 2446 c-8 -8 -7 -15 0 -22 8 -8 15 -7 22 0 8 8 7 15 0 22 -8 8
-15 7 -22 0z"/>
<path d="M2880 2450 c0 -5 -8 -10 -17 -11 -14 0 -15 -2 -3 -6 8 -3 17 -9 20
-13 3 -4 10 -2 16 4 8 9 7 15 -3 24 -8 8 -13 9 -13 2z"/>
<path d="M2934 2446 c-8 -9 -7 -15 3 -24 8 -8 13 -9 13 -2 0 5 8 10 18 11 13
0 14 2 2 6 -8 3 -17 9 -20 13 -3 4 -10 2 -16 -4z"/>
<path d="M1674 2327 c-17 -19 11 -43 29 -25 11 10 12 15 1 25 -15 16 -16 16
-30 0z"/>
<path d="M1744 2326 c-8 -8 -7 -15 0 -22 8 -8 15 -7 22 0 8 8 7 15 0 22 -8 8
-15 7 -22 0z"/>
<path d="M1820 2330 c0 -5 -8 -10 -17 -11 -14 0 -15 -2 -3 -6 8 -3 17 -9 20
-13 3 -4 10 -2 16 4 8 9 7 15 -3 24 -8 8 -13 9 -13 2z"/>
<path d="M1874 2326 c-8 -9 -7 -15 3 -24 8 -8 13 -9 13 -2 0 5 8 10 18 11 13
0 14 2 2 6 -8 3 -17 9 -20 13 -3 4 -10 2 -16 -4z"/>
<path d="M1944 2326 c-8 -8 -7 -15 0 -22 8 -8 15 -7 22 0 8 8 7 15 0 22 -8 8
-15 7 -22 0z"/>
<path d="M2004 2327 c-17 -19 11 -43 29 -25 11 10 12 15 1 25 -15 16 -16 16
-30 0z"/>
<path d="M2074 2326 c-8 -9 -7 -15 3 -24 8 -8 13 -9 13 -2 0 5 8 10 18 11 13
0 14 2 2 6 -8 3 -17 9 -20 13 -3 4 -10 2 -16 -4z"/>
<path d="M2404 2326 c-8 -9 -7 -15 3 -24 8 -8 13 -9 13 -2 0 5 8 10 18 11 13
0 14 2 2 6 -8 3 -17 9 -20 13 -3 4 -10 2 -16 -4z"/>
<path d="M2474 2326 c-8 -8 -7 -15 0 -22 8 -8 15 -7 22 0 8 8 7 15 0 22 -8 8
-15 7 -22 0z"/>
<path d="M2534 2327 c-17 -19 11 -43 29 -25 11 10 12 15 1 25 -15 16 -16 16
-30 0z"/>
<path d="M2604 2326 c-8 -8 -7 -15 3 -24 8 -8 13 -9 13 -2 0 12 57 14 62 1 2
-5 8 -4 14 3 8 8 7 15 -3 24 -8 8 -13 9 -13 2 0 -12 -57 -14 -62 -1 -1 5 -8 4
-14 -3z"/>
<path d="M884 2206 c-8 -8 -7 -15 0 -22 8 -8 15 -7 22 0 8 8 7 15 0 22 -8 8
-15 7 -22 0z"/>
<path d="M1344 2206 c-8 -9 -7 -15 3 -24 8 -8 13 -9 13 -2 0 5 8 10 18 11 13
0 14 2 2 6 -8 3 -17 9 -20 13 -3 4 -10 2 -16 -4z"/>
<path d="M1414 2206 c-8 -8 -7 -15 0 -22 8 -8 15 -7 22 0 8 8 7 15 0 22 -8 8
-15 7 -22 0z"/>
<path d="M1474 2207 c-17 -19 11 -43 29 -25 11 10 12 15 1 25 -15 16 -16 16
-30 0z"/>
<path d="M1544 2206 c-8 -8 -7 -15 3 -24 8 -8 13 -9 13 -2 0 12 57 14 62 1 2
-5 8 -4 14 3 8 8 7 15 -3 24 -8 8 -13 9 -13 2 0 -12 -57 -14 -62 -1 -1 5 -8 4
-14 -3z"/>
<path d="M2274 2206 c-8 -8 -7 -15 0 -22 8 -8 15 -7 22 0 8 8 7 15 0 22 -8 8
-15 7 -22 0z"/>
<path d="M2350 2210 c0 -5 -8 -10 -17 -11 -14 0 -15 -2 -3 -6 8 -3 17 -9 20
-13 3 -4 10 -2 16 4 8 9 7 15 -3 24 -8 8 -13 9 -13 2z"/>
<path d="M2404 2206 c-8 -9 -7 -15 3 -24 8 -8 13 -9 13 -2 0 5 8 10 18 11 13
0 14 2 2 6 -8 3 -17 9 -20 13 -3 4 -10 2 -16 -4z"/>
<path d="M2474 2206 c-8 -8 -7 -15 0 -22 8 -8 15 -7 22 0 8 8 7 15 0 22 -8 8
-15 7 -22 0z"/>
<path d="M2934 2206 c-8 -9 -7 -15 3 -24 8 -8 13 -9 13 -2 0 5 8 10 18 11 13
0 14 2 2 6 -8 3 -17 9 -20 13 -3 4 -10 2 -16 -4z"/>
<path d="M814 2086 c-8 -9 -7 -15 3 -24 8 -8 13 -9 13 -2 0 5 8 10 18 11 13 0
14 2 2 6 -8 3 -17 9 -20 13 -3 4 -10 2 -16 -4z"/>
<path d="M884 2086 c-8 -8 -7 -15 0 -22 8 -8 15 -7 22 0 8 8 7 15 0 22 -8 8
-15 7 -22 0z"/>
<path d="M1144 2087 c-17 -19 11 -43 29 -25 11 10 12 15 1 25 -15 16 -16 16
-30 0z"/>
<path d="M1214 2086 c-8 -8 -7 -15 0 -22 8 -8 15 -7 22 0 8 8 7 15 0 22 -8 8
-15 7 -22 0z"/>
<path d="M1290 2090 c0 -5 -8 -10 -17 -11 -14 0 -15 -2 -3 -6 8 -3 17 -9 20
-13 3 -4 10 -2 16 4 8 9 7 15 -3 24 -8 8 -13 9 -13 2z"/>
<path d="M1344 2086 c-8 -9 -7 -15 3 -24 8 -8 13 -9 13 -2 0 5 8 10 18 11 13
0 14 2 2 6 -8 3 -17 9 -20 13 -3 4 -10 2 -16 -4z"/>
<path d="M1414 2086 c-8 -8 -7 -15 0 -22 8 -8 15 -7 22 0 8 8 7 15 0 22 -8 8
-15 7 -22 0z"/>
<path d="M1820 2090 c0 -5 -8 -10 -17 -11 -14 0 -15 -2 -3 -6 8 -3 17 -9 20
-13 3 -4 10 -2 16 4 8 9 7 15 -3 24 -8 8 -13 9 -13 2z"/>
<path d="M1874 2086 c-8 -9 -7 -15 3 -24 8 -8 13 -9 13 -2 0 5 8 10 18 11 13
0 14 2 2 6 -8 3 -17 9 -20 13 -3 4 -10 2 -16 -4z"/>
<path d="M1944 2086 c-8 -8 -7 -15 0 -22 8 -8 15 -7 22 0 8 8 7 15 0 22 -8 8
-15 7 -22 0z"/>
<path d="M2004 2087 c-17 -19 11 -43 29 -25 11 10 12 15 1 25 -15 16 -16 16
-30 0z"/>
<path d="M2074 2086 c-8 -8 -7 -15 3 -24 8 -8 13 -9 13 -2 0 12 57 14 62 1 2
-5 8 -4 14 3 8 8 7 15 -3 24 -8 8 -13 9 -13 2 0 -12 -57 -14 -62 -1 -1 5 -8 4
-14 -3z"/>
<path d="M2204 2087 c-17 -19 11 -43 29 -25 11 10 12 15 1 25 -15 16 -16 16
-30 0z"/>
<path d="M2274 2086 c-8 -8 -7 -15 0 -22 8 -8 15 -7 22 0 8 8 7 15 0 22 -8 8
-15 7 -22 0z"/>
<path d="M2934 2086 c-8 -9 -7 -15 3 -24 8 -8 13 -9 13 -2 0 5 8 10 18 11 13
0 14 2 2 6 -8 3 -17 9 -20 13 -3 4 -10 2 -16 -4z"/>
<path d="M3004 2086 c-8 -8 -7 -15 0 -22 8 -8 15 -7 22 0 8 8 7 15 0 22 -8 8
-15 7 -22 0z"/>
<path d="M814 1966 c-8 -9 -7 -15 3 -24 8 -8 13 -9 13 -2 0 5 8 10 18 11 13 0
14 2 2 6 -8 3 -17 9 -20 13 -3 4 -10 2 -16 -4z"/>
<path d="M884 1966 c-8 -8 -7 -15 0 -22 8 -8 15 -7 22 0 8 8 7 15 0 22 -8 8
-15 7 -22 0z"/>
<path d="M944 1967 c-17 -19 11 -43 29 -25 11 10 12 15 1 25 -15 16 -16 16
-30 0z"/>
<path d="M1014 1966 c-8 -8 -7 -15 3 -24 8 -8 13 -9 13 -2 0 12 57 14 62 1 2
-5 8 -4 14 3 8 8 7 15 -3 24 -8 8 -13 9 -13 2 0 -12 -57 -14 -62 -1 -1 5 -8 4
-14 -3z"/>
<path d="M1144 1967 c-17 -19 11 -43 29 -25 11 10 12 15 1 25 -15 16 -16 16
-30 0z"/>
<path d="M1214 1966 c-8 -8 -7 -15 0 -22 8 -8 15 -7 22 0 8 8 7 15 0 22 -8 8
-15 7 -22 0z"/>
<path d="M1620 1970 c0 -5 -8 -10 -17 -11 -14 0 -15 -2 -3 -6 8 -3 17 -9 20
-13 3 -4 10 -2 16 4 8 9 7 15 -3 24 -8 8 -13 9 -13 2z"/>
<path d="M1674 1967 c-17 -19 11 -43 29 -25 11 10 12 15 1 25 -15 16 -16 16
-30 0z"/>
<path d="M1744 1966 c-8 -8 -7 -15 0 -22 8 -8 15 -7 22 0 8 8 7 15 0 22 -8 8
-15 7 -22 0z"/>
<path d="M1820 1970 c0 -5 -8 -10 -17 -11 -14 0 -15 -2 -3 -6 8 -3 17 -9 20
-13 3 -4 10 -2 16 4 8 9 7 15 -3 24 -8 8 -13 9 -13 2z"/>
<path d="M1874 1966 c-8 -9 -7 -15 3 -24 8 -8 13 -9 13 -2 0 5 8 10 18 11 13
0 14 2 2 6 -8 3 -17 9 -20 13 -3 4 -10 2 -16 -4z"/>
<path d="M1944 1966 c-8 -8 -7 -15 0 -22 8 -8 15 -7 22 0 8 8 7 15 0 22 -8 8
-15 7 -22 0z"/>
<path d="M2004 1967 c-17 -19 11 -43 29 -25 11 10 12 15 1 25 -15 16 -16 16
-30 0z"/>
<path d="M2074 1966 c-8 -9 -7 -15 3 -24 8 -8 13 -9 13 -2 0 5 8 10 18 11 13
0 14 2 2 6 -8 3 -17 9 -20 13 -3 4 -10 2 -16 -4z"/>
<path d="M2880 1970 c0 -5 -8 -10 -17 -11 -14 0 -15 -2 -3 -6 8 -3 17 -9 20
-13 3 -4 10 -2 16 4 8 9 7 15 -3 24 -8 8 -13 9 -13 2z"/>
<path d="M2934 1966 c-8 -9 -7 -15 3 -24 8 -8 13 -9 13 -2 0 5 8 10 18 11 13
0 14 2 2 6 -8 3 -17 9 -20 13 -3 4 -10 2 -16 -4z"/>
<path d="M3004 1966 c-8 -8 -7 -15 0 -22 8 -8 15 -7 22 0 8 8 7 15 0 22 -8 8
-15 7 -22 0z"/>
<path d="M3064 1967 c-17 -19 11 -43 29 -25 11 10 12 15 1 25 -15 16 -16 16
-30 0z"/>
<path d="M760 1850 c0 -5 -8 -10 -17 -11 -14 0 -15 -2 -3 -6 8 -3 17 -9 20
-13 3 -4 10 -2 16 4 8 9 7 15 -3 24 -8 8 -13 9 -13 2z"/>
<path d="M814 1846 c-8 -9 -7 -15 3 -24 8 -8 13 -9 13 -2 0 5 8 10 18 11 13 0
14 2 2 6 -8 3 -17 9 -20 13 -3 4 -10 2 -16 -4z"/>
<path d="M884 1846 c-8 -8 -7 -15 0 -22 8 -8 15 -7 22 0 8 8 7 15 0 22 -8 8
-15 7 -22 0z"/>
<path d="M944 1847 c-17 -19 11 -43 29 -25 11 10 12 15 1 25 -15 16 -16 16
-30 0z"/>
<path d="M1014 1846 c-8 -8 -7 -15 3 -24 8 -8 13 -9 13 -2 0 12 57 14 62 1 2
-5 8 -4 14 3 8 8 7 15 -3 24 -8 8 -13 9 -13 2 0 -12 -57 -14 -62 -1 -1 5 -8 4
-14 -3z"/>
<path d="M1144 1847 c-17 -19 11 -43 29 -25 11 10 12 15 1 25 -15 16 -16 16
-30 0z"/>
<path d="M1474 1847 c-17 -19 11 -43 29 -25 11 10 12 15 1 25 -15 16 -16 16
-30 0z"/>
<path d="M1544 1846 c-8 -8 -7 -15 3 -24 8 -8 13 -9 13 -2 0 12 57 14 62 1 2
-5 8 -4 14 3 8 8 7 15 -3 24 -8 8 -13 9 -13 2 0 -12 -57 -14 -62 -1 -1 5 -8 4
-14 -3z"/>
<path d="M1674 1847 c-17 -19 11 -43 29 -25 11 10 12 15 1 25 -15 16 -16 16
-30 0z"/>
<path d="M1744 1846 c-8 -8 -7 -15 0 -22 8 -8 15 -7 22 0 8 8 7 15 0 22 -8 8
-15 7 -22 0z"/>
<path d="M1820 1850 c0 -5 -8 -10 -17 -11 -14 0 -15 -2 -3 -6 8 -3 17 -9 20
-13 3 -4 10 -2 16 4 8 9 7 15 -3 24 -8 8 -13 9 -13 2z"/>
<path d="M1874 1846 c-8 -9 -7 -15 3 -24 8 -8 13 -9 13 -2 0 5 8 10 18 11 13
0 14 2 2 6 -8 3 -17 9 -20 13 -3 4 -10 2 -16 -4z"/>
<path d="M2804 1846 c-8 -8 -7 -15 0 -22 8 -8 15 -7 22 0 8 8 7 15 0 22 -8 8
-15 7 -22 0z"/>
<path d="M2880 1850 c0 -5 -8 -10 -17 -11 -14 0 -15 -2 -3 -6 8 -3 17 -9 20
-13 3 -4 10 -2 16 4 8 9 7 15 -3 24 -8 8 -13 9 -13 2z"/>
<path d="M2934 1846 c-8 -9 -7 -15 3 -24 8 -8 13 -9 13 -2 0 5 8 10 18 11 13
0 14 2 2 6 -8 3 -17 9 -20 13 -3 4 -10 2 -16 -4z"/>
<path d="M3004 1846 c-8 -8 -7 -15 0 -22 8 -8 15 -7 22 0 8 8 7 15 0 22 -8 8
-15 7 -22 0z"/>
<path d="M3064 1847 c-17 -19 11 -43 29 -25 11 10 12 15 1 25 -15 16 -16 16
-30 0z"/>
<path d="M3134 1846 c-8 -9 -7 -15 3 -24 8 -8 13 -9 13 -2 0 5 8 10 18 11 13
0 14 2 2 6 -8 3 -17 9 -20 13 -3 4 -10 2 -16 -4z"/>
<path d="M884 1726 c-8 -8 -7 -15 0 -22 8 -8 15 -7 22 0 8 8 7 15 0 22 -8 8
-15 7 -22 0z"/>
<path d="M944 1727 c-17 -19 11 -43 29 -25 11 10 12 15 1 25 -15 16 -16 16
-30 0z"/>
<path d="M1014 1726 c-8 -8 -7 -15 3 -24 8 -8 13 -9 13 -2 0 12 57 14 62 1 2
-5 8 -4 14 3 8 8 7 15 -3 24 -8 8 -13 9 -13 2 0 -12 -57 -14 -62 -1 -1 5 -8 4
-14 -3z"/>
<path d="M1144 1727 c-17 -19 11 -43 29 -25 11 10 12 15 1 25 -15 16 -16 16
-30 0z"/>
<path d="M1344 1726 c-8 -9 -7 -15 3 -24 8 -8 13 -9 13 -2 0 5 8 10 18 11 13
0 14 2 2 6 -8 3 -17 9 -20 13 -3 4 -10 2 -16 -4z"/>
<path d="M1414 1726 c-8 -8 -7 -15 0 -22 8 -8 15 -7 22 0 8 8 7 15 0 22 -8 8
-15 7 -22 0z"/>
<path d="M1474 1727 c-17 -19 11 -43 29 -25 11 10 12 15 1 25 -15 16 -16 16
-30 0z"/>
<path d="M1544 1726 c-8 -8 -7 -15 3 -24 8 -8 13 -9 13 -2 0 12 57 14 62 1 2
-5 8 -4 14 3 8 8 7 15 -3 24 -8 8 -13 9 -13 2 0 -12 -57 -14 -62 -1 -1 5 -8 4
-14 -3z"/>
<path d="M1674 1727 c-17 -19 11 -43 29 -25 11 10 12 15 1 25 -15 16 -16 16
-30 0z"/>
<path d="M2074 1726 c-8 -8 -7 -15 3 -24 8 -8 13 -9 13 -2 0 12 57 14 62 1 2
-5 8 -4 14 3 8 8 7 15 -3 24 -8 8 -13 9 -13 2 0 -12 -57 -14 -62 -1 -1 5 -8 4
-14 -3z"/>
<path d="M2204 1727 c-17 -19 11 -43 29 -25 11 10 12 15 1 25 -15 16 -16 16
-30 0z"/>
<path d="M2274 1726 c-8 -8 -7 -15 0 -22 8 -8 15 -7 22 0 8 8 7 15 0 22 -8 8
-15 7 -22 0z"/>
<path d="M2350 1730 c0 -5 -8 -10 -17 -11 -14 0 -15 -2 -3 -6 8 -3 17 -9 20
-13 3 -4 10 -2 16 4 8 9 7 15 -3 24 -8 8 -13 9 -13 2z"/>
<path d="M2404 1726 c-8 -9 -7 -15 3 -24 8 -8 13 -9 13 -2 0 5 8 10 18 11 13
0 14 2 2 6 -8 3 -17 9 -20 13 -3 4 -10 2 -16 -4z"/>
<path d="M2474 1726 c-8 -8 -7 -15 0 -22 8 -8 15 -7 22 0 8 8 7 15 0 22 -8 8
-15 7 -22 0z"/>
<path d="M2534 1727 c-17 -19 11 -43 29 -25 11 10 12 15 1 25 -15 16 -16 16
-30 0z"/>
<path d="M2604 1726 c-8 -8 -7 -15 3 -24 8 -8 13 -9 13 -2 0 12 57 14 62 1 2
-5 8 -4 14 3 8 8 7 15 -3 24 -8 8 -13 9 -13 2 0 -12 -57 -14 -62 -1 -1 5 -8 4
-14 -3z"/>
<path d="M2734 1727 c-17 -19 11 -43 29 -25 11 10 12 15 1 25 -15 16 -16 16
-30 0z"/>
<path d="M2804 1726 c-8 -8 -7 -15 0 -22 8 -8 15 -7 22 0 8 8 7 15 0 22 -8 8
-15 7 -22 0z"/>
<path d="M2880 1730 c0 -5 -8 -10 -17 -11 -14 0 -15 -2 -3 -6 8 -3 17 -9 20
-13 3 -4 10 -2 16 4 8 9 7 15 -3 24 -8 8 -13 9 -13 2z"/>
<path d="M2934 1726 c-8 -9 -7 -15 3 -24 8 -8 13 -9 13 -2 0 5 8 10 18 11 13
0 14 2 2 6 -8 3 -17 9 -20 13 -3 4 -10 2 -16 -4z"/>
<path d="M3004 1726 c-8 -8 -7 -15 0 -22 8 -8 15 -7 22 0 8 8 7 15 0 22 -8 8
-15 7 -22 0z"/>
<path d="M3064 1727 c-17 -19 11 -43 29 -25 11 10 12 15 1 25 -15 16 -16 16
-30 0z"/>
<path d="M3134 1726 c-8 -8 -7 -15 3 -24 8 -8 13 -9 13 -2 0 12 57 14 62 1 2
-5 8 -4 14 3 8 8 7 15 -3 24 -8 8 -13 9 -13 2 0 -12 -57 -14 -62 -1 -1 5 -8 4
-14 -3z"/>
<path d="M3264 1727 c-17 -19 11 -43 29 -25 11 10 12 15 1 25 -15 16 -16 16
-30 0z"/>
<path d="M3334 1726 c-8 -8 -7 -15 0 -22 8 -8 15 -7 22 0 8 8 7 15 0 22 -8 8
-15 7 -22 0z"/>
<path d="M3410 1730 c0 -5 -8 -10 -17 -11 -14 0 -15 -2 -3 -6 8 -3 17 -9 20
-13 3 -4 10 -2 16 4 8 9 7 15 -3 24 -8 8 -13 9 -13 2z"/>
<path d="M3464 1726 c-8 -9 -7 -15 3 -24 8 -8 13 -9 13 -2 0 5 8 10 18 11 13
0 14 2 2 6 -8 3 -17 9 -20 13 -3 4 -10 2 -16 -4z"/>
<path d="M3534 1726 c-8 -8 -7 -15 0 -22 8 -8 15 -7 22 0 8 8 7 15 0 22 -8 8
-15 7 -22 0z"/>
<path d="M3594 1727 c-17 -19 11 -43 29 -25 11 10 12 15 1 25 -15 16 -16 16
-30 0z"/>
<path d="M3664 1726 c-8 -8 -7 -15 3 -24 8 -8 13 -9 13 -2 0 12 57 14 62 1 2
-5 8 -4 14 3 8 8 7 15 -3 24 -8 8 -13 9 -13 2 0 -12 -57 -14 -62 -1 -1 5 -8 4
-14 -3z"/>
<path d="M3794 1727 c-17 -19 11 -43 29 -25 11 10 12 15 1 25 -15 16 -16 16
-30 0z"/>
<path d="M3864 1726 c-8 -8 -7 -15 0 -22 8 -8 15 -7 22 0 8 8 7 15 0 22 -8 8
-15 7 -22 0z"/>
<path d="M3940 1730 c0 -5 -8 -10 -17 -11 -14 0 -15 -2 -3 -6 8 -3 17 -9 20
-13 3 -4 10 -2 16 4 8 9 7 15 -3 24 -8 8 -13 9 -13 2z"/>
<path d="M884 1606 c-8 -8 -7 -15 0 -22 8 -8 15 -7 22 0 8 8 7 15 0 22 -8 8
-15 7 -22 0z"/>
<path d="M944 1607 c-17 -19 11 -43 29 -25 11 10 12 15 1 25 -15 16 -16 16
-30 0z"/>
<path d="M1014 1606 c-8 -8 -7 -15 3 -24 8 -8 13 -9 13 -2 0 12 57 14 62 1 2
-5 8 -4 14 3 8 8 7 15 -3 24 -8 8 -13 9 -13 2 0 -12 -57 -14 -62 -1 -1 5 -8 4
-14 -3z"/>
<path d="M1144 1607 c-17 -19 11 -43 29 -25 11 10 12 15 1 25 -15 16 -16 16
-30 0z"/>
<path d="M1214 1606 c-8 -8 -7 -15 0 -22 8 -8 15 -7 22 0 8 8 7 15 0 22 -8 8
-15 7 -22 0z"/>
<path d="M1290 1610 c0 -5 -8 -10 -17 -11 -14 0 -15 -2 -3 -6 8 -3 17 -9 20
-13 3 -4 10 -2 16 4 8 9 7 15 -3 24 -8 8 -13 9 -13 2z"/>
<path d="M1344 1606 c-8 -9 -7 -15 3 -24 8 -8 13 -9 13 -2 0 5 8 10 18 11 13
0 14 2 2 6 -8 3 -17 9 -20 13 -3 4 -10 2 -16 -4z"/>
<path d="M1414 1606 c-8 -8 -7 -15 0 -22 8 -8 15 -7 22 0 8 8 7 15 0 22 -8 8
-15 7 -22 0z"/>
<path d="M1474 1607 c-17 -19 11 -43 29 -25 11 10 12 15 1 25 -15 16 -16 16
-30 0z"/>
<path d="M2534 1607 c-17 -19 11 -43 29 -25 11 10 12 15 1 25 -15 16 -16 16
-30 0z"/>
<path d="M2604 1606 c-8 -8 -7 -15 3 -24 8 -8 13 -9 13 -2 0 12 57 14 62 1 2
-5 8 -4 14 3 8 8 7 15 -3 24 -8 8 -13 9 -13 2 0 -12 -57 -14 -62 -1 -1 5 -8 4
-14 -3z"/>
<path d="M2734 1607 c-17 -19 11 -43 29 -25 11 10 12 15 1 25 -15 16 -16 16
-30 0z"/>
<path d="M2804 1606 c-8 -8 -7 -15 0 -22 8 -8 15 -7 22 0 8 8 7 15 0 22 -8 8
-15 7 -22 0z"/>
<path d="M2880 1610 c0 -5 -8 -10 -17 -11 -14 0 -15 -2 -3 -6 8 -3 17 -9 20
-13 3 -4 10 -2 16 4 8 9 7 15 -3 24 -8 8 -13 9 -13 2z"/>
<path d="M2934 1606 c-8 -9 -7 -15 3 -24 8 -8 13 -9 13 -2 0 5 8 10 18 11 13
0 14 2 2 6 -8 3 -17 9 -20 13 -3 4 -10 2 -16 -4z"/>
<path d="M3004 1606 c-8 -8 -7 -15 0 -22 8 -8 15 -7 22 0 8 8 7 15 0 22 -8 8
-15 7 -22 0z"/>
<path d="M3064 1607 c-17 -19 11 -43 29 -25 11 10 12 15 1 25 -15 16 -16 16
-30 0z"/>
<path d="M3134 1606 c-8 -8 -7 -15 3 -24 8 -8 13 -9 13 -2 0 12 57 14 62 1 2
-5 8 -4 14 3 8 8 7 15 -3 24 -8 8 -13 9 -13 2 0 -12 -57 -14 -62 -1 -1 5 -8 4
-14 -3z"/>
<path d="M3464 1606 c-8 -9 -7 -15 3 -24 8 -8 13 -9 13 -2 0 5 8 10 18 11 13
0 14 2 2 6 -8 3 -17 9 -20 13 -3 4 -10 2 -16 -4z"/>
<path d="M814 1486 c-8 -9 -7 -15 3 -24 8 -8 13 -9 13 -2 0 5 8 10 18 11 13 0
14 2 2 6 -8 3 -17 9 -20 13 -3 4 -10 2 -16 -4z"/>
<path d="M884 1486 c-8 -8 -7 -15 0 -22 8 -8 15 -7 22 0 8 8 7 15 0 22 -8 8
-15 7 -22 0z"/>
<path d="M944 1487 c-17 -19 11 -43 29 -25 11 10 12 15 1 25 -15 16 -16 16
-30 0z"/>
<path d="M1014 1486 c-8 -8 -7 -15 3 -24 8 -8 13 -9 13 -2 0 12 57 14 62 1 2
-5 8 -4 14 3 8 8 7 15 -3 24 -8 8 -13 9 -13 2 0 -12 -57 -14 -62 -1 -1 5 -8 4
-14 -3z"/>
<path d="M1290 1490 c0 -5 -8 -10 -17 -11 -14 0 -15 -2 -3 -6 8 -3 17 -9 20
-13 3 -4 10 -2 16 4 8 9 7 15 -3 24 -8 8 -13 9 -13 2z"/>
<path d="M1344 1486 c-8 -9 -7 -15 3 -24 8 -8 13 -9 13 -2 0 5 8 10 18 11 13
0 14 2 2 6 -8 3 -17 9 -20 13 -3 4 -10 2 -16 -4z"/>
<path d="M1414 1486 c-8 -8 -7 -15 0 -22 8 -8 15 -7 22 0 8 8 7 15 0 22 -8 8
-15 7 -22 0z"/>
<path d="M1474 1487 c-17 -19 11 -43 29 -25 11 10 12 15 1 25 -15 16 -16 16
-30 0z"/>
<path d="M2474 1486 c-8 -8 -7 -15 0 -22 8 -8 15 -7 22 0 8 8 7 15 0 22 -8 8
-15 7 -22 0z"/>
<path d="M2534 1487 c-17 -19 11 -43 29 -25 11 10 12 15 1 25 -15 16 -16 16
-30 0z"/>
<path d="M2604 1486 c-8 -9 -7 -15 3 -24 8 -8 13 -9 13 -2 0 5 8 10 18 11 13
0 14 2 2 6 -8 3 -17 9 -20 13 -3 4 -10 2 -16 -4z"/>
<path d="M2880 1490 c0 -5 -8 -10 -17 -11 -14 0 -15 -2 -3 -6 8 -3 17 -9 20
-13 3 -4 10 -2 16 4 8 9 7 15 -3 24 -8 8 -13 9 -13 2z"/>
<path d="M2934 1486 c-8 -9 -7 -15 3 -24 8 -8 13 -9 13 -2 0 5 8 10 18 11 13
0 14 2 2 6 -8 3 -17 9 -20 13 -3 4 -10 2 -16 -4z"/>
<path d="M3004 1486 c-8 -8 -7 -15 0 -22 8 -8 15 -7 22 0 8 8 7 15 0 22 -8 8
-15 7 -22 0z"/>
<path d="M3064 1487 c-17 -19 11 -43 29 -25 11 10 12 15 1 25 -15 16 -16 16
-30 0z"/>
<path d="M3464 1486 c-8 -9 -7 -15 3 -24 8 -8 13 -9 13 -2 0 5 8 10 18 11 13
0 14 2 2 6 -8 3 -17 9 -20 13 -3 4 -10 2 -16 -4z"/>
<path d="M3534 1486 c-8 -8 -7 -15 0 -22 8 -8 15 -7 22 0 8 8 7 15 0 22 -8 8
-15 7 -22 0z"/>
<path d="M814 1366 c-8 -9 -7 -15 3 -24 8 -8 13 -9 13 -2 0 5 8 10 18 11 13 0
14 2 2 6 -8 3 -17 9 -20 13 -3 4 -10 2 -16 -4z"/>
<path d="M884 1366 c-8 -8 -7 -15 0 -22 8 -8 15 -7 22 0 8 8 7 15 0 22 -8 8
-15 7 -22 0z"/>
<path d="M944 1367 c-17 -19 11 -43 29 -25 11 10 12 15 1 25 -15 16 -16 16
-30 0z"/>
<path d="M1290 1370 c0 -5 -8 -10 -17 -11 -14 0 -15 -2 -3 -6 8 -3 17 -9 20
-13 3 -4 10 -2 16 4 8 9 7 15 -3 24 -8 8 -13 9 -13 2z"/>
<path d="M1344 1366 c-8 -9 -7 -15 3 -24 8 -8 13 -9 13 -2 0 5 8 10 18 11 13
0 14 2 2 6 -8 3 -17 9 -20 13 -3 4 -10 2 -16 -4z"/>
<path d="M1414 1366 c-8 -8 -7 -15 0 -22 8 -8 15 -7 22 0 8 8 7 15 0 22 -8 8
-15 7 -22 0z"/>
<path d="M1474 1367 c-17 -19 11 -43 29 -25 11 10 12 15 1 25 -15 16 -16 16
-30 0z"/>
<path d="M1544 1366 c-8 -8 -7 -15 3 -24 8 -8 13 -9 13 -2 0 12 57 14 62 1 2
-5 8 -4 14 3 8 8 7 15 -3 24 -8 8 -13 9 -13 2 0 -12 -57 -14 -62 -1 -1 5 -8 4
-14 -3z"/>
<path d="M1674 1367 c-17 -19 11 -43 29 -25 11 10 12 15 1 25 -15 16 -16 16
-30 0z"/>
<path d="M2074 1366 c-8 -8 -7 -15 3 -24 8 -8 13 -9 13 -2 0 12 57 14 62 1 2
-5 8 -4 14 3 8 8 7 15 -3 24 -8 8 -13 9 -13 2 0 -12 -57 -14 -62 -1 -1 5 -8 4
-14 -3z"/>
<path d="M2204 1367 c-17 -19 11 -43 29 -25 11 10 12 15 1 25 -15 16 -16 16
-30 0z"/>
<path d="M2274 1366 c-8 -8 -7 -15 0 -22 8 -8 15 -7 22 0 8 8 7 15 0 22 -8 8
-15 7 -22 0z"/>
<path d="M2350 1370 c0 -5 -8 -10 -17 -11 -14 0 -15 -2 -3 -6 8 -3 17 -9 20
-13 3 -4 10 -2 16 4 8 9 7 15 -3 24 -8 8 -13 9 -13 2z"/>
<path d="M2404 1366 c-8 -9 -7 -15 3 -24 8 -8 13 -9 13 -2 0 5 8 10 18 11 13
0 14 2 2 6 -8 3 -17 9 -20 13 -3 4 -10 2 -16 -4z"/>
<path d="M2474 1366 c-8 -8 -7 -15 0 -22 8 -8 15 -7 22 0 8 8 7 15 0 22 -8 8
-15 7 -22 0z"/>
<path d="M2534 1367 c-17 -19 11 -43 29 -25 11 10 12 15 1 25 -15 16 -16 16
-30 0z"/>
<path d="M2604 1366 c-8 -8 -7 -15 3 -24 8 -8 13 -9 13 -2 0 12 57 14 62 1 2
-5 8 -4 14 3 8 8 7 15 -3 24 -8 8 -13 9 -13 2 0 -12 -57 -14 -62 -1 -1 5 -8 4
-14 -3z"/>
<path d="M2734 1367 c-17 -19 11 -43 29 -25 11 10 12 15 1 25 -15 16 -16 16
-30 0z"/>
<path d="M2804 1366 c-8 -8 -7 -15 0 -22 8 -8 15 -7 22 0 8 8 7 15 0 22 -8 8
-15 7 -22 0z"/>
<path d="M2880 1370 c0 -5 -8 -10 -17 -11 -14 0 -15 -2 -3 -6 8 -3 17 -9 20
-13 3 -4 10 -2 16 4 8 9 7 15 -3 24 -8 8 -13 9 -13 2z"/>
<path d="M2934 1366 c-8 -9 -7 -15 3 -24 8 -8 13 -9 13 -2 0 5 8 10 18 11 13
0 14 2 2 6 -8 3 -17 9 -20 13 -3 4 -10 2 -16 -4z"/>
<path d="M3004 1366 c-8 -8 -7 -15 0 -22 8 -8 15 -7 22 0 8 8 7 15 0 22 -8 8
-15 7 -22 0z"/>
<path d="M3064 1367 c-17 -19 11 -43 29 -25 11 10 12 15 1 25 -15 16 -16 16
-30 0z"/>
<path d="M3134 1366 c-8 -8 -7 -15 3 -24 8 -8 13 -9 13 -2 0 12 57 14 62 1 2
-5 8 -4 14 3 8 8 7 15 -3 24 -8 8 -13 9 -13 2 0 -12 -57 -14 -62 -1 -1 5 -8 4
-14 -3z"/>
<path d="M3264 1367 c-17 -19 11 -43 29 -25 11 10 12 15 1 25 -15 16 -16 16
-30 0z"/>
<path d="M3334 1366 c-8 -8 -7 -15 0 -22 8 -8 15 -7 22 0 8 8 7 15 0 22 -8 8
-15 7 -22 0z"/>
<path d="M3410 1370 c0 -5 -8 -10 -17 -11 -14 0 -15 -2 -3 -6 8 -3 17 -9 20
-13 3 -4 10 -2 16 4 8 9 7 15 -3 24 -8 8 -13 9 -13 2z"/>
<path d="M3464 1366 c-8 -9 -7 -15 3 -24 8 -8 13 -9 13 -2 0 5 8 10 18 11 13
0 14 2 2 6 -8 3 -17 9 -20 13 -3 4 -10 2 -16 -4z"/>
<path d="M3534 1366 c-8 -8 -7 -15 0 -22 8 -8 15 -7 22 0 8 8 7 15 0 22 -8 8
-15 7 -22 0z"/>
<path d="M3594 1367 c-17 -19 11 -43 29 -25 11 10 12 15 1 25 -15 16 -16 16
-30 0z"/>
<path d="M3664 1366 c-8 -8 -7 -15 3 -24 8 -8 13 -9 13 -2 0 12 57 14 62 1 2
-5 8 -4 14 3 8 8 7 15 -3 24 -8 8 -13 9 -13 2 0 -12 -57 -14 -62 -1 -1 5 -8 4
-14 -3z"/>
<path d="M3794 1367 c-17 -19 11 -43 29 -25 11 10 12 15 1 25 -15 16 -16 16
-30 0z"/>
<path d="M760 1250 c0 -5 -8 -10 -17 -11 -14 0 -15 -2 -3 -6 8 -3 17 -9 20
-13 3 -4 10 -2 16 4 8 9 7 15 -3 24 -8 8 -13 9 -13 2z"/>
<path d="M814 1246 c-8 -9 -7 -15 3 -24 8 -8 13 -9 13 -2 0 5 8 10 18 11 13 0
14 2 2 6 -8 3 -17 9 -20 13 -3 4 -10 2 -16 -4z"/>
<path d="M884 1246 c-8 -8 -7 -15 0 -22 8 -8 15 -7 22 0 8 8 7 15 0 22 -8 8
-15 7 -22 0z"/>
<path d="M944 1247 c-17 -19 11 -43 29 -25 11 10 12 15 1 25 -15 16 -16 16
-30 0z"/>
<path d="M1290 1250 c0 -5 -8 -10 -17 -11 -14 0 -15 -2 -3 -6 8 -3 17 -9 20
-13 3 -4 10 -2 16 4 8 9 7 15 -3 24 -8 8 -13 9 -13 2z"/>
<path d="M1344 1246 c-8 -9 -7 -15 3 -24 8 -8 13 -9 13 -2 0 5 8 10 18 11 13
0 14 2 2 6 -8 3 -17 9 -20 13 -3 4 -10 2 -16 -4z"/>
<path d="M1414 1246 c-8 -8 -7 -15 0 -22 8 -8 15 -7 22 0 8 8 7 15 0 22 -8 8
-15 7 -22 0z"/>
<path d="M1474 1247 c-17 -19 11 -43 29 -25 11 10 12 15 1 25 -15 16 -16 16
-30 0z"/>
<path d="M1544 1246 c-8 -8 -7 -15 3 -24 8 -8 13 -9 13 -2 0 12 57 14 62 1 2
-5 8 -4 14 3 8 8 7 15 -3 24 -8 8 -13 9 -13 2 0 -12 -57 -14 -62 -1 -1 5 -8 4
-14 -3z"/>
<path d="M1674 1247 c-17 -19 11 -43 29 -25 11 10 12 15 1 25 -15 16 -16 16
-30 0z"/>
<path d="M1744 1246 c-8 -8 -7 -15 0 -22 8 -8 15 -7 22 0 8 8 7 15 0 22 -8 8
-15 7 -22 0z"/>
<path d="M1820 1250 c0 -5 -8 -10 -17 -11 -14 0 -15 -2 -3 -6 8 -3 17 -9 20
-13 3 -4 10 -2 16 4 8 9 7 15 -3 24 -8 8 -13 9 -13 2z"/>
<path d="M1874 1246 c-8 -9 -7 -15 3 -24 8 -8 13 -9 13 -2 0 5 8 10 18 11 13
0 14 2 2 6 -8 3 -17 9 -20 13 -3 4 -10 2 -16 -4z"/>
<path d="M2534 1247 c-17 -19 11 -43 29 -25 11 10 12 15 1 25 -15 16 -16 16
-30 0z"/>
<path d="M2604 1246 c-8 -9 -7 -15 3 -24 8 -8 13 -9 13 -2 0 5 8 10 18 11 13
0 14 2 2 6 -8 3 -17 9 -20 13 -3 4 -10 2 -16 -4z"/>
<path d="M2934 1246 c-8 -9 -7 -15 3 -24 8 -8 13 -9 13 -2 0 5 8 10 18 11 13
0 14 2 2 6 -8 3 -17 9 -20 13 -3 4 -10 2 -16 -4z"/>
<path d="M3004 1246 c-8 -8 -7 -15 0 -22 8 -8 15 -7 22 0 8 8 7 15 0 22 -8 8
-15 7 -22 0z"/>
<path d="M3464 1246 c-8 -9 -7 -15 3 -24 8 -8 13 -9 13 -2 0 5 8 10 18 11 13
0 14 2 2 6 -8 3 -17 9 -20 13 -3 4 -10 2 -16 -4z"/>
<path d="M354 1126 c-8 -8 -7 -15 0 -22 8 -8 15 -7 22 0 8 8 7 15 0 22 -8 8
-15 7 -22 0z"/>
<path d="M414 1127 c-17 -19 11 -43 29 -25 11 10 12 15 1 25 -15 16 -16 16
-30 0z"/>
<path d="M484 1126 c-8 -8 -7 -15 3 -24 8 -8 13 -9 13 -2 0 12 57 14 62 1 2
-5 8 -4 14 3 8 8 7 15 -3 24 -8 8 -13 9 -13 2 0 -12 -57 -14 -62 -1 -1 5 -8 4
-14 -3z"/>
<path d="M614 1127 c-17 -19 11 -43 29 -25 11 10 12 15 1 25 -15 16 -16 16
-30 0z"/>
<path d="M684 1126 c-8 -8 -7 -15 0 -22 8 -8 15 -7 22 0 8 8 7 15 0 22 -8 8
-15 7 -22 0z"/>
<path d="M760 1130 c0 -5 -8 -10 -17 -11 -14 0 -15 -2 -3 -6 8 -3 17 -9 20
-13 3 -4 10 -2 16 4 8 9 7 15 -3 24 -8 8 -13 9 -13 2z"/>
<path d="M814 1126 c-8 -9 -7 -15 3 -24 8 -8 13 -9 13 -2 0 5 8 10 18 11 13 0
14 2 2 6 -8 3 -17 9 -20 13 -3 4 -10 2 -16 -4z"/>
<path d="M884 1126 c-8 -8 -7 -15 0 -22 8 -8 15 -7 22 0 8 8 7 15 0 22 -8 8
-15 7 -22 0z"/>
<path d="M944 1127 c-17 -19 11 -43 29 -25 11 10 12 15 1 25 -15 16 -16 16
-30 0z"/>
<path d="M1014 1126 c-8 -9 -7 -15 3 -24 8 -8 13 -9 13 -2 0 5 8 10 18 11 13
0 14 2 2 6 -8 3 -17 9 -20 13 -3 4 -10 2 -16 -4z"/>
<path d="M1544 1126 c-8 -8 -7 -15 3 -24 8 -8 13 -9 13 -2 0 12 57 14 62 1 2
-5 8 -4 14 3 8 8 7 15 -3 24 -8 8 -13 9 -13 2 0 -12 -57 -14 -62 -1 -1 5 -8 4
-14 -3z"/>
<path d="M1674 1127 c-17 -19 11 -43 29 -25 11 10 12 15 1 25 -15 16 -16 16
-30 0z"/>
<path d="M1744 1126 c-8 -8 -7 -15 0 -22 8 -8 15 -7 22 0 8 8 7 15 0 22 -8 8
-15 7 -22 0z"/>
<path d="M1874 1126 c-8 -9 -7 -15 3 -24 8 -8 13 -9 13 -2 0 5 8 10 18 11 13
0 14 2 2 6 -8 3 -17 9 -20 13 -3 4 -10 2 -16 -4z"/>
<path d="M1944 1126 c-8 -8 -7 -15 0 -22 8 -8 15 -7 22 0 8 8 7 15 0 22 -8 8
-15 7 -22 0z"/>
<path d="M2004 1127 c-17 -19 11 -43 29 -25 11 10 12 15 1 25 -15 16 -16 16
-30 0z"/>
<path d="M2074 1126 c-8 -9 -7 -15 3 -24 8 -8 13 -9 13 -2 0 5 8 10 18 11 13
0 14 2 2 6 -8 3 -17 9 -20 13 -3 4 -10 2 -16 -4z"/>
<path d="M2534 1127 c-17 -19 11 -43 29 -25 11 10 12 15 1 25 -15 16 -16 16
-30 0z"/>
<path d="M3464 1126 c-8 -9 -7 -15 3 -24 8 -8 13 -9 13 -2 0 5 8 10 18 11 13
0 14 2 2 6 -8 3 -17 9 -20 13 -3 4 -10 2 -16 -4z"/>
<path d="M944 1007 c-17 -19 11 -43 29 -25 11 10 12 15 1 25 -15 16 -16 16
-30 0z"/>
<path d="M1014 1006 c-8 -8 -7 -15 3 -24 8 -8 13 -9 13 -2 0 12 57 14 62 1 2
-5 8 -4 14 3 8 8 7 15 -3 24 -8 8 -13 9 -13 2 0 -12 -57 -14 -62 -1 -1 5 -8 4
-14 -3z"/>
<path d="M1144 1007 c-17 -19 11 -43 29 -25 11 10 12 15 1 25 -15 16 -16 16
-30 0z"/>
<path d="M1820 1010 c0 -5 -8 -10 -17 -11 -14 0 -15 -2 -3 -6 8 -3 17 -9 20
-13 3 -4 10 -2 16 4 8 9 7 15 -3 24 -8 8 -13 9 -13 2z"/>
<path d="M1874 1006 c-8 -9 -7 -15 3 -24 8 -8 13 -9 13 -2 0 5 8 10 18 11 13
0 14 2 2 6 -8 3 -17 9 -20 13 -3 4 -10 2 -16 -4z"/>
<path d="M1944 1006 c-8 -8 -7 -15 0 -22 8 -8 15 -7 22 0 8 8 7 15 0 22 -8 8
-15 7 -22 0z"/>
<path d="M2150 1010 c0 -5 -8 -10 -17 -11 -14 0 -15 -2 -3 -6 8 -3 17 -9 20
-13 3 -4 10 -2 16 4 8 9 7 15 -3 24 -8 8 -13 9 -13 2z"/>
<path d="M2204 1007 c-17 -19 11 -43 29 -25 11 10 12 15 1 25 -15 16 -16 16
-30 0z"/>
<path d="M2274 1006 c-8 -8 -7 -15 0 -22 8 -8 15 -7 22 0 8 8 7 15 0 22 -8 8
-15 7 -22 0z"/>
<path d="M1090 890 c0 -5 -8 -10 -17 -11 -14 0 -15 -2 -3 -6 8 -3 17 -9 20
-13 3 -4 10 -2 16 4 8 9 7 15 -3 24 -8 8 -13 9 -13 2z"/>
<path d="M1144 887 c-17 -19 11 -43 29 -25 11 10 12 15 1 25 -15 16 -16 16
-30 0z"/>
<path d="M1214 886 c-8 -8 -7 -15 0 -22 8 -8 15 -7 22 0 8 8 7 15 0 22 -8 8
-15 7 -22 0z"/>
<path d="M1290 890 c0 -5 -8 -10 -17 -11 -14 0 -15 -2 -3 -6 8 -3 17 -9 20
-13 3 -4 10 -2 16 4 8 9 7 15 -3 24 -8 8 -13 9 -13 2z"/>
<path d="M1944 886 c-8 -8 -7 -15 0 -22 8 -8 15 -7 22 0 8 8 7 15 0 22 -8 8
-15 7 -22 0z"/>
<path d="M2004 887 c-17 -19 11 -43 29 -25 11 10 12 15 1 25 -15 16 -16 16
-30 0z"/>
<path d="M2074 886 c-8 -9 -7 -15 3 -24 8 -8 13 -9 13 -2 0 5 8 10 18 11 13 0
14 2 2 6 -8 3 -17 9 -20 13 -3 4 -10 2 -16 -4z"/>
<path d="M2474 886 c-8 -8 -7 -15 0 -22 8 -8 15 -7 22 0 8 8 7 15 0 22 -8 8
-15 7 -22 0z"/>
<path d="M1144 767 c-17 -19 11 -43 29 -25 11 10 12 15 1 25 -15 16 -16 16
-30 0z"/>
<path d="M1214 766 c-8 -8 -7 -15 0 -22 8 -8 15 -7 22 0 8 8 7 15 0 22 -8 8
-15 7 -22 0z"/>
<path d="M1290 770 c0 -5 -8 -10 -17 -11 -14 0 -15 -2 -3 -6 8 -3 17 -9 20
-13 3 -4 10 -2 16 4 8 9 7 15 -3 24 -8 8 -13 9 -13 2z"/>
<path d="M1344 766 c-8 -9 -7 -15 3 -24 8 -8 13 -9 13 -2 0 5 8 10 18 11 13 0
14 2 2 6 -8 3 -17 9 -20 13 -3 4 -10 2 -16 -4z"/>
<path d="M1414 766 c-8 -8 -7 -15 0 -22 8 -8 15 -7 22 0 8 8 7 15 0 22 -8 8
-15 7 -22 0z"/>
<path d="M1620 770 c0 -5 -8 -10 -17 -11 -14 0 -15 -2 -3 -6 8 -3 17 -9 20
-13 3 -4 10 -2 16 4 8 9 7 15 -3 24 -8 8 -13 9 -13 2z"/>
<path d="M1674 767 c-17 -19 11 -43 29 -25 11 10 12 15 1 25 -15 16 -16 16
-30 0z"/>
<path d="M1744 766 c-8 -8 -7 -15 0 -22 8 -8 15 -7 22 0 8 8 7 15 0 22 -8 8
-15 7 -22 0z"/>
<path d="M1820 770 c0 -5 -8 -10 -17 -11 -14 0 -15 -2 -3 -6 8 -3 17 -9 20
-13 3 -4 10 -2 16 4 8 9 7 15 -3 24 -8 8 -13 9 -13 2z"/>
<path d="M1874 766 c-8 -9 -7 -15 3 -24 8 -8 13 -9 13 -2 0 5 8 10 18 11 13 0
14 2 2 6 -8 3 -17 9 -20 13 -3 4 -10 2 -16 -4z"/>
<path d="M2150 770 c0 -5 -8 -10 -17 -11 -14 0 -15 -2 -3 -6 8 -3 17 -9 20
-13 3 -4 10 -2 16 4 8 9 7 15 -3 24 -8 8 -13 9 -13 2z"/>
<path d="M2204 767 c-17 -19 11 -43 29 -25 11 10 12 15 1 25 -15 16 -16 16
-30 0z"/>
<path d="M2274 766 c-8 -8 -7 -15 0 -22 8 -8 15 -7 22 0 8 8 7 15 0 22 -8 8
-15 7 -22 0z"/>
<path d="M814 646 c-8 -9 -7 -15 3 -24 8 -8 13 -9 13 -2 0 5 8 10 18 11 13 0
14 2 2 6 -8 3 -17 9 -20 13 -3 4 -10 2 -16 -4z"/>
<path d="M884 646 c-8 -8 -7 -15 0 -22 8 -8 15 -7 22 0 8 8 7 15 0 22 -8 8
-15 7 -22 0z"/>
<path d="M944 647 c-17 -19 11 -43 29 -25 11 10 12 15 1 25 -15 16 -16 16 -30
0z"/>
<path d="M1014 646 c-8 -8 -7 -15 3 -24 8 -8 13 -9 13 -2 0 12 57 14 62 1 2
-5 8 -4 14 3 8 8 7 15 -3 24 -8 8 -13 9 -13 2 0 -12 -57 -14 -62 -1 -1 5 -8 4
-14 -3z"/>
<path d="M1214 646 c-8 -8 -7 -15 0 -22 8 -8 15 -7 22 0 8 8 7 15 0 22 -8 8
-15 7 -22 0z"/>
<path d="M1290 650 c0 -5 -8 -10 -17 -11 -14 0 -15 -2 -3 -6 8 -3 17 -9 20
-13 3 -4 10 -2 16 4 8 9 7 15 -3 24 -8 8 -13 9 -13 2z"/>
<path d="M1344 646 c-8 -9 -7 -15 3 -24 8 -8 13 -9 13 -2 0 5 8 10 18 11 13 0
14 2 2 6 -8 3 -17 9 -20 13 -3 4 -10 2 -16 -4z"/>
<path d="M1414 646 c-8 -8 -7 -15 0 -22 8 -8 15 -7 22 0 8 8 7 15 0 22 -8 8
-15 7 -22 0z"/>
<path d="M2204 647 c-17 -19 11 -43 29 -25 11 10 12 15 1 25 -15 16 -16 16
-30 0z"/>
<path d="M2274 646 c-8 -8 -7 -15 0 -22 8 -8 15 -7 22 0 8 8 7 15 0 22 -8 8
-15 7 -22 0z"/>
<path d="M2350 650 c0 -5 -8 -10 -17 -11 -14 0 -15 -2 -3 -6 8 -3 17 -9 20
-13 3 -4 10 -2 16 4 8 9 7 15 -3 24 -8 8 -13 9 -13 2z"/>
<path d="M2404 646 c-8 -9 -7 -15 3 -24 8 -8 13 -9 13 -2 0 5 8 10 18 11 13 0
14 2 2 6 -8 3 -17 9 -20 13 -3 4 -10 2 -16 -4z"/>
<path d="M2474 646 c-8 -8 -7 -15 0 -22 8 -8 15 -7 22 0 8 8 7 15 0 22 -8 8
-15 7 -22 0z"/>
<path d="M1290 530 c0 -5 -8 -10 -17 -11 -14 0 -15 -2 -3 -6 8 -3 17 -9 20
-13 3 -4 10 -2 16 4 8 9 7 15 -3 24 -8 8 -13 9 -13 2z"/>
<path d="M1344 526 c-8 -9 -7 -15 3 -24 8 -8 13 -9 13 -2 0 5 8 10 18 11 13 0
14 2 2 6 -8 3 -17 9 -20 13 -3 4 -10 2 -16 -4z"/>
<path d="M1414 526 c-8 -8 -7 -15 0 -22 8 -8 15 -7 22 0 8 8 7 15 0 22 -8 8
-15 7 -22 0z"/>
<path d="M1474 527 c-17 -19 11 -43 29 -25 11 10 12 15 1 25 -15 16 -16 16
-30 0z"/>
<path d="M2534 527 c-17 -19 11 -43 29 -25 11 10 12 15 1 25 -15 16 -16 16
-30 0z"/>
<path d="M2604 526 c-8 -8 -7 -15 3 -24 8 -8 13 -9 13 -2 0 12 57 14 62 1 2
-5 8 -4 14 3 8 8 7 15 -3 24 -8 8 -13 9 -13 2 0 -12 -57 -14 -62 -1 -1 5 -8 4
-14 -3z"/>
<path d="M2734 527 c-17 -19 11 -43 29 -25 11 10 12 15 1 25 -15 16 -16 16
-30 0z"/>
<path d="M2734 407 c-17 -19 11 -43 29 -25 11 10 12 15 1 25 -15 16 -16 16
-30 0z"/>
<path d="M2804 406 c-8 -8 -7 -15 0 -22 8 -8 15 -7 22 0 8 8 7 15 0 22 -8 8
-15 7 -22 0z"/>
<path d="M2880 410 c0 -5 -8 -10 -17 -11 -14 0 -15 -2 -3 -6 8 -3 17 -9 20
-13 3 -4 10 -2 16 4 8 9 7 15 -3 24 -8 8 -13 9 -13 2z"/>
<path d="M3004 286 c-8 -8 -7 -15 0 -22 8 -8 15 -7 22 0 8 8 7 15 0 22 -8 8
-15 7 -22 0z"/>
<path d="M3064 287 c-17 -19 11 -43 29 -25 11 10 12 15 1 25 -15 16 -16 16
-30 0z"/>
</g>
</svg>
